<mxfile host="app.diagrams.net" modified="2024-05-06T06:19:40.598Z" agent="Mozilla/5.0 (Windows NT 10.0; Win64; x64) AppleWebKit/537.36 (KHTML, like Gecko) Chrome/124.0.0.0 Safari/537.36 Edg/124.0.0.0" version="24.3.1" etag="xqrHAVkwCdofzyxkGu_f" type="device">
  <diagram id="MOOH4d_asTUBLwjjdUKt" name="PÃ¡gina-1">
    <mxGraphModel dx="1386" dy="785" grid="1" gridSize="10" guides="1" tooltips="1" connect="1" arrows="1" fold="1" page="1" pageScale="1" pageWidth="827" pageHeight="1169" math="0" shadow="0">
      <root>
        <mxCell id="0" />
        <mxCell id="1" parent="0" />
        <mxCell id="Tujni-8VN1gcCi8oIuBw-1" value="SecondByDay" style="rounded=0;whiteSpace=wrap;html=1;" vertex="1" parent="1">
          <mxGeometry x="330" y="90" width="240" height="40" as="geometry" />
        </mxCell>
        <mxCell id="Tujni-8VN1gcCi8oIuBw-2" value="double dias;&lt;div&gt;int segundos&lt;/div&gt;" style="rounded=0;whiteSpace=wrap;html=1;align=left;" vertex="1" parent="1">
          <mxGeometry x="330" y="130" width="240" height="80" as="geometry" />
        </mxCell>
        <mxCell id="Tujni-8VN1gcCi8oIuBw-3" value="convertir dias a segundos();" style="rounded=0;whiteSpace=wrap;html=1;align=left;" vertex="1" parent="1">
          <mxGeometry x="330" y="210" width="240" height="70" as="geometry" />
        </mxCell>
      </root>
    </mxGraphModel>
  </diagram>
</mxfile>
